<?xml version="1.0" standalone="no"?>
<!DOCTYPE svg PUBLIC "-//W3C//DTD SVG 20010904//EN"
 "http://www.w3.org/TR/2001/REC-SVG-20010904/DTD/svg10.dtd">
<svg version="1.0" xmlns="http://www.w3.org/2000/svg"
 width="514.000000pt" height="514.000000pt" viewBox="0 0 514.000000 514.000000"
 preserveAspectRatio="xMidYMid meet">

<g transform="translate(0.000000,514.000000) scale(0.100000,-0.100000)"
fill="#000000" stroke="none">
<path d="M2335 4946 c-33 -7 -77 -16 -97 -20 -21 -4 -44 -13 -51 -21 -8 -7
-30 -20 -51 -29 -20 -8 -36 -19 -36 -24 0 -5 -21 -19 -47 -32 -50 -25 -203
-172 -203 -196 0 -8 -4 -14 -10 -14 -5 0 -10 5 -10 10 0 6 -47 10 -120 10 -73
0 -120 -4 -120 -10 0 -5 -10 -10 -22 -10 -58 0 -258 -55 -258 -71 0 -4 -9 -11
-20 -14 -11 -3 -26 -12 -32 -18 -23 -22 -67 -47 -82 -47 -8 0 -27 -11 -42 -25
-15 -14 -30 -25 -33 -25 -3 0 -24 -16 -45 -35 -22 -19 -45 -35 -51 -35 -7 0
-34 -25 -60 -55 -27 -30 -54 -55 -61 -55 -13 0 -67 -64 -77 -92 -3 -10 -22
-24 -42 -32 -19 -8 -35 -21 -35 -28 0 -7 -20 -36 -44 -63 -23 -28 -50 -63 -59
-80 -8 -16 -27 -40 -41 -52 -14 -12 -38 -46 -53 -74 -38 -70 -47 -86 -64 -106
-8 -10 -22 -34 -31 -53 -43 -92 -78 -171 -99 -227 -13 -35 -27 -63 -31 -63 -5
0 -8 -8 -8 -17 0 -10 -7 -31 -15 -47 -8 -15 -15 -35 -15 -42 0 -8 -4 -22 -10
-32 -10 -18 -32 -108 -57 -237 -24 -124 -22 -747 4 -787 12 -20 2 -211 -17
-338 -29 -190 -42 -245 -114 -480 -37 -121 -40 -138 -57 -290 -25 -237 -25
-236 21 -371 23 -68 47 -130 53 -137 13 -16 90 -52 111 -52 9 0 16 -4 16 -10
0 -15 30 -12 30 3 1 6 10 -4 20 -25 20 -37 74 -78 104 -78 9 0 16 -4 16 -10 0
-5 11 -10 24 -10 13 0 27 -6 29 -12 6 -14 12 89 8 140 -1 17 2 32 6 32 4 -1
25 -25 46 -55 21 -30 44 -55 51 -55 7 0 28 -14 46 -30 18 -17 49 -35 67 -42
18 -7 33 -15 33 -20 0 -25 197 -38 259 -17 18 6 34 9 37 6 3 -2 0 -24 -6 -48
-25 -98 -27 -89 23 -89 65 0 100 17 170 84 l30 28 30 -54 c24 -43 39 -59 73
-74 24 -10 44 -22 44 -26 0 -5 20 -8 45 -8 26 0 45 5 45 11 0 6 6 9 14 6 7 -3
19 0 25 6 7 7 11 7 11 1 0 -6 -17 -26 -37 -45 -21 -19 -50 -48 -64 -65 -14
-16 -38 -39 -55 -51 l-29 -22 38 -1 c43 0 57 10 165 118 35 35 67 75 73 89 5
15 7 58 3 98 l-7 73 30 16 31 15 17 -47 c10 -26 38 -87 62 -137 24 -50 59
-120 76 -157 l32 -67 405 0 405 -1 35 63 c19 34 46 86 59 115 13 28 28 52 33
52 20 0 168 -79 207 -111 44 -34 47 -47 26 -102 -7 -16 7 -17 231 -15 l239 3
17 125 c9 69 17 166 18 215 l1 90 27 -34 c15 -19 58 -68 95 -109 38 -41 82
-102 98 -135 39 -81 91 -156 108 -157 25 0 3 65 -64 190 -33 63 -32 69 14 63
36 -5 43 -2 80 36 22 22 47 41 55 41 8 0 17 8 20 18 4 10 29 24 66 36 33 10
60 22 60 26 0 4 24 17 53 29 96 41 181 183 190 316 2 44 1 44 79 24 32 -8 61
-9 90 -3 39 8 43 12 43 39 -1 17 -4 47 -7 67 -6 35 -5 38 16 38 34 0 86 20
108 42 10 10 25 18 33 18 8 0 15 5 15 10 0 6 16 20 35 31 19 11 48 44 66 72
17 29 35 54 40 57 4 3 16 28 26 55 17 46 21 50 58 56 54 7 82 23 139 83 65 67
90 136 83 228 -2 37 -11 78 -19 90 -9 13 -19 42 -23 66 -4 23 -10 42 -14 42
-4 0 -14 12 -22 28 -25 49 -53 82 -80 96 l-27 14 19 -32 c50 -83 62 -121 67
-217 l4 -96 -36 -37 c-32 -31 -43 -36 -84 -36 -41 0 -51 4 -76 32 l-29 33 9
110 c5 60 9 178 9 260 -1 129 -4 160 -25 225 -13 41 -29 82 -35 90 -6 8 -24
36 -39 62 -14 26 -37 53 -49 59 -12 7 -33 22 -47 35 -53 51 -73 63 -126 80
-60 19 -73 46 -30 65 54 25 153 303 157 442 1 27 10 -6 24 -91 23 -138 35
-173 35 -106 0 21 9 88 20 148 53 294 28 626 -67 866 -14 36 -31 72 -38 80 -7
8 -22 36 -34 62 -11 26 -25 49 -30 52 -5 3 -19 25 -31 48 -12 24 -31 53 -42
65 -21 22 -39 51 -56 88 -6 11 -20 29 -32 40 -12 11 -29 33 -37 48 -13 26 -84
106 -142 162 -12 11 -47 46 -79 78 -31 31 -62 57 -67 57 -6 0 -37 25 -70 55
-32 30 -65 55 -72 55 -16 0 -85 32 -101 47 -7 6 -28 17 -47 24 -19 7 -35 16
-35 20 0 8 -33 21 -117 44 -35 10 -63 21 -63 25 0 4 -28 15 -62 25 -35 11 -65
22 -68 25 -32 41 -610 39 -610 -1 0 -5 -9 -9 -20 -9 -11 0 -20 4 -20 9 0 19
-224 61 -318 60 -37 0 -94 -6 -127 -13z m253 -41 c97 -20 228 -63 246 -80 7
-8 64 -36 127 -64 62 -28 115 -55 118 -59 3 -4 30 -25 60 -46 53 -37 98 -77
207 -183 56 -54 94 -80 94 -65 0 14 -106 130 -164 179 -28 24 -60 52 -71 64
-11 11 -47 38 -80 60 -33 21 -65 43 -72 49 -6 5 -55 31 -107 57 -53 26 -96 50
-96 54 0 20 325 34 425 19 76 -11 294 -75 305 -89 3 -4 37 -20 75 -35 84 -35
168 -76 175 -86 3 -3 29 -20 59 -36 30 -16 67 -41 84 -57 16 -15 55 -49 86
-75 66 -55 234 -236 271 -291 14 -21 52 -78 85 -127 68 -102 66 -99 132 -219
113 -207 144 -362 142 -722 l-1 -198 -14 90 c-45 297 -141 584 -243 730 -69
100 -66 79 15 -98 30 -66 51 -123 48 -128 -3 -5 11 -48 30 -96 64 -163 85
-305 66 -469 -16 -150 -64 -304 -120 -389 -15 -22 -29 -48 -33 -57 -6 -18 -35
-15 -48 5 -4 5 -28 12 -55 15 -43 4 -47 3 -37 -10 7 -8 32 -23 55 -34 24 -10
45 -21 48 -25 3 -3 41 -25 86 -48 44 -23 110 -68 146 -102 55 -49 72 -73 96
-132 56 -136 59 -187 36 -548 -8 -119 3 -160 54 -194 20 -14 45 -25 54 -25 10
0 18 -4 18 -10 0 -5 16 -10 35 -10 19 0 35 5 35 10 0 6 8 10 18 10 24 0 71 33
94 66 11 16 17 21 14 11 -3 -10 -6 -27 -6 -37 0 -9 -18 -42 -41 -72 -56 -76
-114 -103 -223 -103 -106 0 -152 22 -239 111 -67 68 -85 76 -73 31 6 -27 99
-136 130 -154 15 -9 17 -12 5 -13 -26 0 -115 49 -143 80 -43 49 -64 33 -28
-22 48 -73 176 -128 297 -128 50 0 53 -4 25 -40 -11 -14 -20 -29 -20 -35 0
-11 -47 -62 -98 -108 -36 -32 -157 -91 -171 -83 -23 15 -28 -59 -6 -110 l15
-36 -47 7 c-65 10 -145 42 -164 67 -16 20 -17 18 -24 -48 -10 -94 -35 -170
-77 -232 -41 -62 -80 -93 -154 -123 -30 -13 -54 -26 -54 -30 0 -4 -13 -10 -30
-14 -33 -7 -140 -91 -140 -109 0 -13 -55 -36 -86 -36 -11 0 -87 66 -179 156
-95 92 -179 166 -207 180 -43 22 -48 28 -48 58 0 31 3 34 37 41 21 4 40 10 43
14 3 4 70 31 149 59 80 28 147 55 150 60 3 5 49 30 101 56 52 26 100 53 105
60 6 6 37 28 70 48 33 21 85 60 115 88 30 28 65 58 78 67 12 8 22 20 22 25 0
6 21 33 46 61 51 57 114 180 139 272 17 62 32 243 22 269 -5 12 -10 13 -30 3
-22 -10 -25 -18 -31 -107 -13 -198 -92 -357 -258 -516 -35 -33 -83 -76 -108
-94 -25 -19 -49 -40 -55 -47 -5 -7 -46 -33 -90 -57 -44 -25 -85 -50 -92 -55
-15 -13 -164 -75 -220 -92 -24 -7 -43 -16 -43 -20 0 -11 -209 -75 -312 -96
-46 -10 -85 -21 -88 -24 -3 -4 -50 -12 -105 -19 -103 -12 -159 -29 -98 -30 54
0 54 -6 -12 -185 -20 -55 -41 -115 -47 -133 -5 -18 -15 -35 -23 -38 -14 -6
-113 41 -130 61 -5 6 -26 22 -45 35 -19 13 -39 28 -45 34 -5 7 -37 32 -70 58
-54 41 -155 147 -155 162 0 3 20 6 45 6 25 0 45 4 45 9 0 10 -54 31 -81 31
-11 0 -19 5 -19 10 0 6 -8 10 -17 10 -23 0 -315 98 -323 108 -3 4 -29 18 -57
31 -29 14 -53 29 -53 35 0 6 20 36 44 67 24 31 51 69 59 85 19 36 32 118 22
141 -5 14 -11 6 -26 -34 -17 -43 -27 -55 -60 -69 -21 -10 -39 -21 -39 -26 0
-4 -11 -8 -25 -8 -14 0 -25 5 -25 10 0 6 -7 10 -15 10 -32 0 -91 69 -120 139
-27 67 -28 76 -22 175 6 101 6 104 -15 109 -12 4 -24 5 -26 3 -1 -2 -6 -51 -9
-108 -7 -119 5 -170 63 -268 42 -69 96 -103 166 -104 26 -1 48 -4 48 -7 0 -12
-36 -38 -73 -54 -97 -40 -276 10 -321 92 -34 62 -69 136 -86 186 l-19 52 -1
-46 c0 -62 30 -146 79 -218 31 -46 53 -65 93 -85 64 -31 146 -49 199 -44 21 2
39 0 39 -4 0 -10 -105 -68 -124 -68 -9 0 -16 -4 -16 -10 0 -5 -16 -10 -35 -10
-19 0 -35 5 -35 10 0 6 -6 10 -14 10 -8 0 -40 14 -71 30 -66 35 -65 34 -65 16
0 -18 62 -73 106 -94 19 -8 34 -19 34 -23 0 -12 98 -39 139 -39 48 0 107 17
126 36 22 22 19 11 -9 -33 -52 -81 -92 -107 -185 -122 -167 -27 -331 69 -415
244 -39 82 -53 148 -62 300 -9 149 -18 169 -34 76 -35 -207 33 -426 171 -554
93 -87 143 -109 266 -116 56 -3 107 -3 115 0 7 3 39 19 71 34 49 24 60 26 68
14 13 -21 12 -23 -39 -43 -26 -10 -58 -26 -72 -35 -14 -9 -29 -16 -35 -17 -23
-2 -70 -26 -90 -47 -38 -38 -46 -63 -39 -121 9 -74 0 -83 -90 -91 -84 -8 -133
8 -162 53 -9 15 -27 41 -40 59 -23 30 -26 31 -51 18 -14 -8 -29 -17 -32 -22
-6 -8 -116 -63 -126 -63 -3 0 -5 26 -5 58 0 65 -23 153 -44 171 -11 9 -12 4
-5 -31 17 -86 23 -82 -104 -75 -116 5 -207 28 -243 62 -11 9 -38 29 -60 45
-23 16 -63 60 -89 99 -75 111 -94 95 -78 -63 6 -55 10 -102 9 -103 -3 -4 -47
29 -82 63 -46 43 -57 96 -52 237 5 102 3 117 -9 104 -22 -21 -43 -115 -43
-189 0 -77 -9 -84 -67 -48 -47 28 -62 58 -85 167 -16 80 -19 122 -15 228 5
131 40 330 73 418 9 23 26 88 38 144 13 56 27 108 33 115 38 50 65 411 43 602
-31 280 -21 684 21 829 11 39 24 88 28 107 8 36 52 161 91 260 12 30 29 73 37
95 8 22 20 47 27 55 15 17 58 92 95 165 13 28 40 68 58 91 18 23 33 45 33 51
0 5 20 24 44 41 24 18 70 67 102 109 64 86 143 168 219 228 28 22 60 49 71 60
12 11 57 40 100 64 44 25 81 48 84 52 21 29 239 109 297 109 13 0 23 4 23 8 0
10 219 26 228 18 2 -3 -3 -17 -12 -31 -9 -14 -21 -37 -27 -52 -9 -24 -8 -25 7
-12 9 8 34 37 55 65 56 76 159 177 212 209 26 15 47 30 47 35 0 13 151 71 220
85 90 18 177 18 268 0z m-700 -4114 c4 -13 -120 -51 -169 -51 -51 0 -49 11 4
33 23 9 56 28 72 41 30 24 30 24 60 6 16 -11 31 -23 33 -29z m65 -17 c62 -33
62 -40 1 -68 -31 -14 -60 -26 -64 -26 -5 0 -11 -6 -14 -12 -4 -7 -4 -2 0 12
29 123 26 120 77 94z m147 -64 c3 -4 34 -17 70 -29 81 -26 81 -27 111 -77 33
-57 97 -124 176 -186 37 -29 77 -62 89 -73 12 -11 48 -36 80 -55 106 -64 105
-58 50 -168 l-48 -94 -37 7 c-20 3 -73 24 -118 46 -46 21 -87 39 -93 39 -5 0
-10 4 -10 9 0 5 -15 15 -32 22 -32 13 -43 20 -72 46 -8 7 -16 9 -20 6 -3 -4
-6 -2 -6 4 0 5 -11 15 -24 21 -42 19 -74 48 -252 235 -78 81 -98 111 -90 132
3 8 41 32 85 55 44 22 85 49 91 60 10 18 36 18 50 0z m1145 -88 c-4 -57 -33
-165 -62 -232 -36 -83 -138 -260 -150 -260 -3 0 -24 15 -47 33 -23 19 -67 46
-98 62 -61 31 -67 42 -47 92 25 63 79 260 79 290 0 30 2 32 38 31 40 0 233 30
241 37 2 3 15 5 28 5 22 0 23 -3 18 -58z"/>
<path d="M1930 4248 c0 -7 9 -26 21 -43 28 -42 87 -169 109 -237 21 -64 45
-177 39 -183 -2 -2 -32 -7 -67 -11 -58 -6 -62 -5 -62 14 0 41 -42 197 -65 242
l-24 45 0 -35 c0 -19 4 -53 9 -75 6 -22 12 -85 15 -140 l5 -100 -86 -45 c-48
-25 -92 -53 -98 -62 -14 -23 -29 -23 -22 0 27 84 67 502 48 502 -5 0 -15 -51
-21 -112 -23 -214 -69 -449 -90 -456 -5 -2 -29 -19 -53 -38 -50 -38 -74 -75
-65 -98 9 -22 38 -20 44 4 3 10 17 27 31 36 24 16 25 16 18 -2 -5 -11 -16 -41
-26 -69 -29 -83 -117 -285 -158 -366 -87 -169 -187 -293 -360 -448 -83 -75
-92 -81 -174 -127 -156 -88 -282 -84 -343 13 -26 42 -30 57 -33 144 -7 168 43
335 151 505 35 56 125 136 206 184 57 34 81 43 123 44 l53 1 3 -58 c4 -74 -20
-159 -62 -217 -50 -70 -52 -78 -12 -40 54 51 94 119 116 195 22 77 18 114 -17
151 -23 25 -29 26 -84 21 -34 -3 -68 -12 -78 -21 -10 -9 -21 -16 -26 -16 -23
0 -152 -102 -208 -164 -109 -122 -158 -211 -199 -363 -25 -92 -30 -274 -10
-340 17 -58 75 -125 125 -145 44 -18 166 -24 182 -10 6 4 28 14 50 21 56 19
182 96 229 139 126 117 236 228 236 237 0 7 9 20 20 30 30 27 106 145 150 234
69 135 160 358 160 389 0 14 12 44 52 127 18 38 40 56 143 116 22 13 46 29 53
36 32 31 35 15 28 -129 -14 -287 -42 -355 -237 -590 -30 -36 -80 -88 -110
-115 -29 -26 -57 -53 -61 -59 -4 -6 -37 -31 -73 -55 -36 -23 -65 -46 -65 -49
0 -4 -18 -16 -40 -29 -44 -25 -54 -37 -15 -19 14 6 27 9 30 6 3 -2 -13 -46
-34 -95 -67 -153 -89 -322 -67 -505 14 -124 30 -77 42 131 6 88 9 107 20 97 6
-7 35 -27 62 -45 58 -37 133 -124 170 -196 29 -59 72 -181 72 -207 0 -19 8
-22 33 -12 50 19 -117 356 -198 400 -19 10 -35 22 -35 26 0 4 -25 22 -56 40
l-56 31 5 41 c7 50 40 153 62 197 10 18 22 51 29 73 10 35 19 45 61 66 168 84
464 452 465 576 0 12 7 38 15 57 8 20 15 47 15 61 0 14 5 28 11 31 12 8 4
-214 -13 -315 l-10 -65 -77 -37 c-60 -29 -85 -49 -121 -94 -45 -56 -56 -75
-131 -227 l-39 -78 3 -172 c2 -167 3 -174 31 -229 41 -81 78 -123 101 -114 14
5 16 9 7 18 -7 7 -12 18 -12 25 0 7 -13 33 -29 57 -15 25 -34 72 -41 104 -11
54 -10 72 15 203 19 100 36 158 54 189 14 25 28 50 31 56 17 39 118 163 133
164 20 0 21 -4 6 -31 -5 -11 -19 -52 -29 -92 -35 -131 -22 -421 23 -530 25
-59 113 -153 170 -182 107 -53 226 -24 338 82 110 105 149 225 149 460 0 111
-12 227 -26 242 -2 2 -10 -1 -18 -8 -9 -8 -43 -11 -93 -9 l-78 3 -3 47 c-3 42
0 49 25 65 16 11 54 20 97 23 l70 6 48 -48 c26 -26 48 -44 48 -39 0 6 18 22
39 38 78 56 119 177 122 366 l2 72 13 -85 c7 -47 13 -141 13 -210 1 -84 5
-130 13 -138 16 -16 45 -15 76 4 31 18 122 134 122 154 0 9 7 6 20 -8 26 -27
40 -28 70 -2 l23 20 14 -29 c16 -33 42 -47 100 -55 39 -6 43 -4 62 28 12 18
21 39 21 46 0 6 9 23 19 37 11 13 23 45 27 71 4 26 10 57 15 68 4 12 3 26 -2
31 -7 7 -7 52 -3 124 l8 114 11 -60 c6 -33 15 -68 19 -78 5 -11 5 -62 1 -115
-4 -54 -8 -110 -9 -127 0 -16 -5 -33 -9 -36 -5 -3 -2 -9 7 -12 10 -4 16 -1 16
8 0 24 24 95 32 95 5 0 8 15 8 33 1 28 2 30 11 13 7 -12 9 -50 4 -110 l-7 -92
61 4 c62 4 85 -10 36 -22 -50 -13 -169 -157 -163 -198 5 -35 42 -31 46 5 2 15
7 25 11 23 4 -3 29 13 56 34 27 21 51 38 52 36 2 -2 -7 -25 -19 -52 -31 -70
-38 -291 -13 -419 23 -121 63 -222 101 -259 73 -71 83 -76 155 -76 41 0 73 5
81 13 7 7 29 23 48 37 45 30 70 57 92 95 68 116 63 96 62 275 l-1 164 18 -53
c10 -29 23 -106 29 -171 10 -122 23 -175 39 -166 10 6 90 -119 116 -179 14
-35 25 -40 58 -27 15 7 14 13 -14 72 -18 36 -41 78 -52 93 -10 16 -35 58 -54
94 -32 60 -36 78 -49 210 -16 168 -24 196 -78 278 -55 84 -61 118 -29 172 75
129 70 376 -11 545 -32 67 -32 67 -6 46 14 -12 41 -40 61 -62 25 -27 41 -37
52 -33 22 8 22 38 0 59 -10 10 -29 29 -43 43 -14 15 -45 40 -70 57 -25 17 -50
36 -55 43 -6 7 -51 33 -100 58 l-90 45 -23 64 c-33 92 -88 201 -155 303 -73
114 -66 74 14 -85 56 -109 109 -240 109 -267 0 -9 -17 -13 -54 -13 -30 0 -90
-7 -133 -15 -43 -8 -83 -15 -89 -15 -6 0 -17 19 -24 43 -25 86 -94 197 -122
197 -5 0 3 -22 17 -50 35 -69 77 -204 69 -224 -3 -9 0 -23 7 -32 8 -10 14 -51
16 -107 l3 -92 -14 48 c-17 58 -55 154 -72 182 -6 11 -19 45 -28 77 -16 56
-57 149 -97 221 -24 43 -70 92 -102 109 -21 10 -21 10 -6 -8 9 -10 29 -41 44
-69 112 -194 158 -368 181 -681 6 -88 5 -93 -29 -178 -19 -47 -31 -84 -26 -80
13 8 11 -3 -6 -37 -16 -31 -58 -54 -82 -45 -7 3 -13 20 -13 39 0 20 -7 40 -16
48 -14 11 -19 10 -35 -11 -36 -47 -41 -51 -57 -48 -10 2 -22 19 -28 38 l-12
35 -15 -35 c-15 -36 -150 -179 -154 -164 -1 5 -7 70 -12 145 -11 135 -34 276
-66 399 -19 76 -64 211 -75 225 -4 6 -17 36 -29 68 -46 125 -155 263 -177 225
-4 -7 -3 -9 1 -5 16 14 108 -154 143 -263 86 -263 88 -678 4 -787 -16 -22 -17
-20 -18 75 -1 193 -95 503 -195 643 -12 17 -19 32 -17 34 2 2 23 -1 46 -7 47
-12 69 -2 59 26 -7 17 -66 36 -114 36 -23 0 -38 8 -55 30 -12 16 -41 52 -63
80 -44 57 -120 150 -208 258 -63 76 -127 132 -127 110z m200 -273 c0 -7 7 -19
16 -26 21 -17 128 -159 123 -163 -2 -2 -32 -1 -66 2 -60 4 -63 6 -63 31 0 22
-18 94 -45 182 -8 24 -8 24 14 5 11 -11 21 -25 21 -31z m1604 -257 c3 -24 9
-61 12 -83 4 -22 11 -45 16 -52 5 -7 10 -63 11 -125 2 -111 1 -115 -33 -181
-51 -99 -80 -123 -161 -130 -77 -7 -79 -5 -79 93 0 30 -7 73 -15 95 -8 22 -14
65 -15 95 0 31 -7 109 -16 174 -8 65 -14 120 -12 121 10 8 173 33 224 34 l61
1 7 -42z m-1397 -17 c36 -42 120 -219 152 -321 32 -101 55 -224 66 -354 l7
-80 -28 19 c-16 10 -41 25 -56 33 -16 7 -28 17 -28 21 0 13 -103 40 -175 46
-38 4 -98 2 -132 -3 l-61 -8 5 35 c3 20 13 45 23 56 33 37 55 185 55 365 0 91
-3 180 -7 198 l-8 33 83 -7 c72 -6 85 -10 104 -33z m-223 -8 c20 -141 14 -280
-18 -438 -8 -38 -18 -86 -21 -105 -3 -21 -22 -53 -46 -80 l-41 -45 8 70 c6 58
6 258 0 570 -1 50 -1 50 34 56 74 13 78 12 84 -28z m1749 6 c63 -32 89 -53 96
-79 2 -8 17 -58 33 -110 27 -84 30 -110 32 -230 1 -129 -1 -139 -31 -225 l-33
-90 5 60 c5 72 -7 176 -35 287 -31 128 -92 311 -112 335 -10 13 -29 83 -22 83
3 0 33 -14 67 -31z m-516 -171 c-3 -8 -6 -5 -6 6 -1 11 2 17 5 13 3 -3 4 -12
1 -19z m527 -201 c20 -79 56 -310 56 -352 0 -9 -52 23 -66 41 -20 24 -82 44
-140 44 -66 0 -66 -1 5 97 68 93 101 175 102 255 0 77 8 62 43 -85z m96 -511
c0 -7 7 -19 16 -26 9 -8 14 -25 12 -44 -3 -26 -8 -31 -33 -34 -16 -1 -48 3
-70 11 -47 16 -56 43 -28 81 14 20 27 25 61 26 29 0 42 -4 42 -14z m-1729 -29
c32 -17 104 -87 118 -114 6 -12 11 -70 11 -131 0 -103 1 -110 21 -115 24 -6
23 -7 -5 -108 -19 -70 -49 -129 -80 -158 -31 -29 -77 -41 -165 -41 l-73 0 -60
62 c-52 55 -59 65 -56 97 2 26 9 39 26 46 20 9 23 15 18 45 -4 19 -9 94 -12
165 l-6 130 41 62 c22 34 49 64 58 66 39 10 142 6 164 -6z m1595 -70 c65 -45
83 -85 91 -202 6 -92 5 -95 -15 -95 -11 0 -23 -4 -26 -8 -3 -5 8 -6 24 -4 62
9 52 -76 -17 -149 -46 -49 -46 -49 -110 -49 -60 0 -67 2 -97 33 -34 35 -73
135 -62 162 5 13 15 16 40 13 19 -2 32 0 30 4 -3 4 -16 8 -29 8 -34 0 -40 32
-26 143 6 51 13 108 14 127 2 38 19 47 93 49 32 1 53 -7 90 -32z"/>
<path d="M2304 2414 c-18 -14 -18 -15 4 -4 12 6 22 13 22 15 0 8 -5 6 -26 -11z"/>
<path d="M2090 2316 c0 -3 14 -12 30 -21 17 -9 30 -13 30 -11 0 3 -13 12 -30
21 -16 9 -30 13 -30 11z"/>
<path d="M1450 3510 c20 -13 40 -13 40 0 0 6 -12 10 -27 10 -22 0 -25 -2 -13
-10z"/>
<path d="M3130 2106 c-18 -22 -5 -46 25 -46 23 0 26 4 23 27 -3 32 -29 41 -48
19z"/>
<path d="M2813 1575 c-85 -13 -179 -41 -188 -55 -10 -16 18 -140 46 -205 4
-11 15 -36 22 -55 8 -19 35 -56 59 -81 42 -44 147 -109 175 -109 7 0 13 -4 13
-10 0 -5 20 -10 45 -10 25 0 45 5 45 10 0 6 11 10 25 10 62 0 140 115 200 295
42 125 50 139 81 140 35 0 44 29 15 44 -65 35 -381 50 -538 26z m127 -75 c25
-6 54 -12 66 -15 11 -2 48 -31 81 -64 100 -97 103 -167 12 -261 -48 -50 -53
-53 -105 -54 -31 0 -58 4 -62 10 -4 6 -27 22 -52 34 -102 52 -140 104 -184
252 -17 55 -17 58 1 77 26 28 156 40 243 21z"/>
</g>
</svg>
