<?xml version="1.0" standalone="no"?>
<!DOCTYPE svg PUBLIC "-//W3C//DTD SVG 20010904//EN"
 "http://www.w3.org/TR/2001/REC-SVG-20010904/DTD/svg10.dtd">
<svg version="1.0" xmlns="http://www.w3.org/2000/svg"
 width="512.000000pt" height="512.000000pt" viewBox="0 0 512.000000 512.000000"
 preserveAspectRatio="xMidYMid meet">

<g transform="translate(0.000000,512.000000) scale(0.100000,-0.100000)"
fill="#000000" stroke="none">
<path d="M3085 5091 c-39 -24 -178 -169 -238 -247 -260 -342 -483 -939 -637
-1699 -21 -104 -41 -211 -45 -238 -4 -26 -11 -49 -15 -52 -4 -2 -29 30 -55 73
-343 548 -739 908 -1150 1048 -147 50 -210 34 -222 -54 -6 -47 4 -60 131 -162
296 -238 563 -733 727 -1345 33 -124 120 -537 114 -543 -2 -2 -36 19 -77 46
-367 247 -846 396 -1296 403 -111 2 -114 1 -140 -24 -30 -31 -37 -92 -12 -121
7 -10 57 -46 110 -81 320 -211 610 -495 808 -791 218 -325 355 -692 407 -1087
8 -65 15 -125 15 -133 0 -9 13 -29 29 -45 l29 -29 992 0 992 0 28 28 c22 23
29 41 34 88 59 557 260 1026 618 1440 182 211 357 360 678 577 66 44 76 109
24 158 -23 21 -31 23 -137 21 -458 -10 -921 -154 -1294 -404 -40 -26 -74 -48
-77 -48 -2 0 -2 8 0 18 2 9 17 89 34 177 152 779 440 1389 796 1685 141 118
147 125 141 171 -11 82 -58 101 -171 70 -246 -68 -485 -219 -726 -461 -204
-204 -362 -410 -533 -699 l-92 -154 -8 129 c-13 206 -2 895 17 1064 53 471
151 809 307 1056 48 76 51 114 10 155 -35 34 -72 38 -116 10z m-105 -303
c-118 -263 -198 -641 -230 -1098 -20 -280 -11 -972 15 -1175 5 -35 -4 -60 -63
-185 -38 -80 -84 -182 -103 -227 -19 -45 -36 -83 -39 -83 -3 0 -27 53 -54 118
-28 64 -97 212 -154 327 l-104 210 11 80 c21 137 108 562 152 735 124 495 284
905 458 1175 31 48 132 185 137 185 1 0 -10 -28 -26 -62z m-1899 -999 c427
-217 827 -696 1179 -1411 91 -183 230 -503 230 -526 0 -8 -22 -73 -49 -145
-27 -73 -70 -198 -97 -280 -27 -81 -52 -146 -55 -145 -4 2 -37 41 -74 88 -38
47 -138 155 -225 242 l-156 156 -13 84 c-38 251 -115 584 -187 809 -158 494
-361 858 -620 1116 l-73 72 50 -19 c28 -11 68 -29 90 -41z m3009 -28 c-348
-355 -599 -917 -749 -1676 -22 -110 -43 -226 -46 -257 l-7 -57 -172 -173
c-217 -218 -380 -433 -511 -673 -45 -82 -46 -84 -52 -67 -3 7 -43 75 -89 152
l-83 139 49 160 c181 586 467 1206 759 1646 276 416 605 728 909 861 42 19 78
34 78 34 1 0 -38 -40 -86 -89z m-3543 -1576 c180 -24 304 -52 468 -107 758
-251 1334 -884 1676 -1841 l39 -107 -550 0 c-432 0 -551 3 -554 13 -2 6 -11
70 -21 142 -96 721 -529 1404 -1170 1850 -38 27 -74 52 -79 57 -15 12 61 10
191 -7z m4203 -3 c-13 -9 -70 -50 -125 -91 -629 -465 -1029 -1127 -1118 -1851
l-13 -105 -320 -3 -321 -2 -12 42 c-23 78 -112 311 -163 426 l-50 113 37 72
c291 562 739 1001 1247 1223 243 106 597 191 808 192 55 1 55 1 30 -16z"/>
</g>
</svg>
